<?xml version="1.0" encoding="utf-8"?>
<!-- Generator: Adobe Illustrator 24.3.0, SVG Export Plug-In . SVG Version: 6.00 Build 0)  -->
<svg version="1.1" id="Layer_1" xmlns="http://www.w3.org/2000/svg" xmlns:xlink="http://www.w3.org/1999/xlink" x="0px" y="0px"
	 viewBox="0 0 23 23" enable-background="new 0 0 23 23" xml:space="preserve">
<g id="Layer_2_1_">
	<g id="Layer_1-2">
		<path fill="#DBDBDB" d="M0.2,9.3C0.1,9.7,0.1,10.1,0,10.5c0,0,0,0.1,0,0.1v1.9c0.1,0.2,0.1,0.5,0.1,0.8c0.7,4.8,4.4,8.7,9.1,9.6
			c6,1.2,11.9-2.5,13.4-8.5c1.6-6.2-2.3-12.6-8.5-14c-0.6-0.1-1.2-0.2-1.8-0.3c0,0-0.1,0-0.1,0h-1.7c-0.3,0.1-0.5,0.1-0.8,0.1
			C5.1,0.8,1.1,4.6,0.2,9.3z M17,20.1c-3.4,2.2-7.7,2.2-11.1,0c-0.1-0.1-0.2-0.2-0.1-0.3c0.7-3.1,3.8-5.1,6.9-4.5
			c2.2,0.5,4,2.2,4.5,4.4C17.3,19.8,17.2,20,17,20.1z M7.9,10.1c0-2,1.6-3.7,3.7-3.7s3.7,1.6,3.7,3.7c0,2-1.6,3.6-3.6,3.7
			C9.5,13.7,7.9,12.1,7.9,10.1C7.9,10.1,7.9,10.1,7.9,10.1L7.9,10.1z M11.1,1.4c4.6-0.2,8.8,2.7,10.1,7.1c1.3,4.1-0.2,8.2-2.8,10.5
			c-0.7-2.2-2.1-3.7-4.2-4.7c1.5-1.1,2.3-2.6,2.2-4.5c-0.1-1.3-0.6-2.5-1.6-3.4c-2-1.8-5.1-1.7-7,0.2c-1.1,1.1-1.6,2.6-1.4,4
			c0.2,1.5,0.9,2.7,2.2,3.6c-2.1,0.9-3.5,2.5-4.2,4.7c-2.3-2-4-5.8-2.9-10C2.8,4.7,6.6,1.6,11.1,1.4z"/>
	</g>
</g>
</svg>
