<svg id="add" xmlns="http://www.w3.org/2000/svg" width="24" height="24" viewBox="0 0 24 24">
  <path id="Path_175" data-name="Path 175" d="M9.5,16h-7A2.5,2.5,0,0,1,0,13.5V2.5A2.5,2.5,0,0,1,2.5,0h19A2.5,2.5,0,0,1,24,2.5v9a.5.5,0,0,1-1,0v-9A1.5,1.5,0,0,0,21.5,1H2.5A1.5,1.5,0,0,0,1,2.5v11A1.5,1.5,0,0,0,2.5,15h7a.5.5,0,0,1,0,1Z" fill="#321d6f"/>
  <path id="Path_176" data-name="Path 176" d="M12,11a3,3,0,1,1,3-3A3,3,0,0,1,12,11Zm0-5a2,2,0,1,0,2,2A2,2,0,0,0,12,6Z" fill="#321d6f"/>
  <path id="Path_177" data-name="Path 177" d="M17.5,24A6.5,6.5,0,1,1,24,17.5,6.508,6.508,0,0,1,17.5,24Zm0-12A5.5,5.5,0,1,0,23,17.5,5.506,5.506,0,0,0,17.5,12Z" fill="#321d6f"/>
  <path id="Path_178" data-name="Path 178" d="M17.5,21a.5.5,0,0,1-.5-.5v-6a.5.5,0,0,1,1,0v6A.5.5,0,0,1,17.5,21Z" fill="#321d6f"/>
  <path id="Path_179" data-name="Path 179" d="M20.5,18h-6a.5.5,0,0,1,0-1h6a.5.5,0,0,1,0,1Z" fill="#321d6f"/>
  <path id="Path_180" data-name="Path 180" d="M5.5,4h-2a.5.5,0,0,1,0-1h2a.5.5,0,0,1,0,1Z" fill="#321d6f"/>
</svg>
