<svg xmlns="http://www.w3.org/2000/svg" width="38.601" height="31.938" viewBox="0 0 38.601 31.938">
  <g id="aeroplane" transform="translate(0 -32.112)">
    <g id="Group_104" data-name="Group 104" transform="translate(12.872 32.112)">
      <g id="Group_103" data-name="Group 103" transform="translate(0 0)">
        <path id="Path_114" data-name="Path 114" d="M149.11,32.444a2.3,2.3,0,0,0-1.487-.319,5.923,5.923,0,0,0-2.656,1.116q-1.036.8-2.39,1.912L141.3,36.269c-.266.266-.531.478-.8.744a.925.925,0,0,1-.8.266c-.159-.053-.372-.106-.584-.159L129.19,33.4c-.319-.106-.637-.212-1.009-.319a1.673,1.673,0,0,0-1.594.266,4.746,4.746,0,0,0-1.381,1.54,1.256,1.256,0,0,0,.266,1.7,3.875,3.875,0,0,0,.584.478c1.806,1.275,3.665,2.5,5.471,3.771a8.439,8.439,0,0,1,1.806,1.487c.106.159.212.266.319.425L130.2,46.043c-.372.372-.744.691-1.116,1.062-.053,0-.106-.053-.159-.053l-.584-.266c-.478-.212-.9-.478-1.381-.691a1.531,1.531,0,0,0-1.7.212,10.2,10.2,0,0,0-.8.744,1.11,1.11,0,0,0-.106,1.594,2.31,2.31,0,0,0,.319.372l1.009,1.275c1.169,1.54,2.39,3.081,3.612,4.568a1.747,1.747,0,0,0,1.7.691,1.993,1.993,0,0,0,1.328-1.275,2.472,2.472,0,0,0,.053-1.753l-.106-.478-.319-1.275c1.434-1.116,2.868-2.178,4.25-3.293l.691-.531.159.266a8.2,8.2,0,0,1,.9,1.806l2.443,6.268c.159.372.266.744.425,1.062a1.339,1.339,0,0,0,1.222.9,1.414,1.414,0,0,0,.637-.159,1.067,1.067,0,0,0,.425-.212,2.8,2.8,0,0,0,1.594-1.806,4.4,4.4,0,0,0,.053-1.647l-1.275-9.3c-.106-.744-.212-1.54-.319-2.284a.757.757,0,0,1,.319-.8l1.116-.956c.9-.744,1.753-1.487,2.656-2.231A8.627,8.627,0,0,0,148.9,36a5.577,5.577,0,0,0,.8-1.7A1.589,1.589,0,0,0,149.11,32.444Zm-.425,1.647a5.979,5.979,0,0,1-.691,1.434,6.476,6.476,0,0,1-1.434,1.594c-.85.744-1.753,1.487-2.656,2.231l-1.062.9a1.816,1.816,0,0,0-.744,1.806c.106.744.212,1.487.319,2.284l1.275,9.3a2.946,2.946,0,0,1-.053,1.222,1.878,1.878,0,0,1-1.009,1.116,2.591,2.591,0,0,1-.372.159c-.319.106-.425.053-.531-.212-.159-.319-.266-.691-.425-1.062l-2.337-6.268a13.725,13.725,0,0,0-1.009-1.965l-.319-.531-.478-.691-1.647,1.222c-1.487,1.116-2.975,2.284-4.409,3.4a.668.668,0,0,0-.266.8c.106.478.266.956.372,1.434l.106.478a1.583,1.583,0,0,1-.053,1.116,1.123,1.123,0,0,1-.744.637.536.536,0,0,1-.266-.106.64.64,0,0,1-.266-.266c-1.222-1.54-2.39-3.028-3.559-4.568l-1.009-1.275a2.248,2.248,0,0,1-.266-.372.165.165,0,0,1-.053-.106l.106-.106a7.545,7.545,0,0,1,.691-.637.476.476,0,0,1,.584-.053c.478.212.9.425,1.381.691l.584.266.319.159a.731.731,0,0,0,.85-.106c.425-.425.85-.8,1.275-1.222l3.665-3.453.425-.425-.266-.372c-.053-.106-.106-.159-.159-.266a5.562,5.562,0,0,0-.425-.584,8.8,8.8,0,0,0-2.019-1.7c-1.806-1.222-3.665-2.5-5.471-3.771a2.92,2.92,0,0,1-.478-.372c-.159-.159-.159-.212-.053-.319a4.4,4.4,0,0,1,1.169-1.275c.106-.106.266-.159.637-.053a10.029,10.029,0,0,1,.956.319l9.933,3.718a5.451,5.451,0,0,0,.744.212,1.916,1.916,0,0,0,1.647-.478c.266-.266.531-.478.8-.744l1.275-1.116c.9-.744,1.647-1.381,2.337-1.912a4.656,4.656,0,0,1,2.178-.9,1.013,1.013,0,0,1,.691.106C148.685,33.453,148.791,33.772,148.685,34.091Z" transform="translate(-124.068 -32.112)" fill="#321d6f"/>
      </g>
    </g>
    <g id="Group_106" data-name="Group 106" transform="translate(0 52.324)">
      <g id="Group_105" data-name="Group 105">
        <path id="Path_115" data-name="Path 115" d="M14.116,227.13a.571.571,0,0,0-.744-.106L.2,237.063a.571.571,0,0,0-.106.744.483.483,0,0,0,.425.212.754.754,0,0,0,.319-.106l13.174-10.04A.513.513,0,0,0,14.116,227.13Z" transform="translate(0 -226.931)" fill="#5f64c7"/>
      </g>
    </g>
    <g id="Group_108" data-name="Group 108" transform="translate(6.852 54.821)">
      <g id="Group_107" data-name="Group 107" transform="translate(0 0)">
        <path id="Path_116" data-name="Path 116" d="M75.065,251.194a.644.644,0,0,0-.8-.106l-8.021,6.162a.571.571,0,0,0-.106.744.483.483,0,0,0,.425.212.755.755,0,0,0,.319-.106l8.074-6.162A.571.571,0,0,0,75.065,251.194Z" transform="translate(-66.048 -250.995)" fill="#5f64c7"/>
      </g>
    </g>
    <g id="Group_110" data-name="Group 110" transform="translate(4.143 61.992)">
      <g id="Group_109" data-name="Group 109">
        <path id="Path_117" data-name="Path 117" d="M42.206,320.314a.571.571,0,0,0-.744-.106l-1.328,1.009a.571.571,0,0,0-.106.744.483.483,0,0,0,.425.212.755.755,0,0,0,.319-.106l1.328-1.009A.571.571,0,0,0,42.206,320.314Z" transform="translate(-39.936 -320.115)" fill="#5f64c7"/>
      </g>
    </g>
    <g id="Group_112" data-name="Group 112" transform="translate(2.39 56.043)">
      <g id="Group_111" data-name="Group 111">
        <path id="Path_118" data-name="Path 118" d="M25.31,262.97a.571.571,0,0,0-.744-.106l-1.328,1.009a.571.571,0,0,0-.106.744.483.483,0,0,0,.425.212.754.754,0,0,0,.319-.106l1.328-1.009A.571.571,0,0,0,25.31,262.97Z" transform="translate(-23.04 -262.771)" fill="#5f64c7"/>
      </g>
    </g>
    <g id="Group_114" data-name="Group 114" transform="translate(5.099 50.253)">
      <g id="Group_113" data-name="Group 113" transform="translate(0 0)">
        <path id="Path_119" data-name="Path 119" d="M56.416,207.162a.571.571,0,0,0-.744-.106l-6.321,4.781a.571.571,0,0,0-.106.744.656.656,0,0,0,.425.212.755.755,0,0,0,.319-.106l6.321-4.781A.571.571,0,0,0,56.416,207.162Z" transform="translate(-49.152 -206.963)" fill="#5f64c7"/>
      </g>
    </g>
  </g>
</svg>
