<svg xmlns="http://www.w3.org/2000/svg" viewBox="0 0 336.09 239.5"><g id="Layer_2" data-name="Layer 2"><g id="Layer_3" data-name="Layer 3"><path d="M52.62,72.58c12.43,8.28,24.87,16.53,37.27,24.86,4.85,3.26,6.89,8.25,5.61,13.16-2.17,8.35-11.21,11.75-18.69,6.85C65,109.66,53.2,101.7,41.4,93.83S18,78.26,6.28,70.43C-2,64.85-2.12,55,6.16,49.5q35.22-23.59,70.53-47c5.39-3.59,11.17-3.21,15.44.78A12,12,0,0,1,94.32,18a14.92,14.92,0,0,1-5,4.88L52.39,47.43c1.38.9,2.75.49,4,.49Q148,48,239.69,48c46.28.08,84.44,31.08,94.3,76.3,11,50.7-22.46,102.38-73.23,113a95.43,95.43,0,0,1-19.64,2.22q-90.15,0-180.3,0c-6,0-10.39-3-12.15-8.08a11.81,11.81,0,0,1,4-13.38c2.6-2,5.57-2.51,8.79-2.5q54.42.06,108.85,0,34,0,68.09,0c36.13-.05,65-24,71.87-59.51,7.57-39.25-21.62-79-61.33-83.51A103.56,103.56,0,0,0,237,71.89q-90.15,0-180.31,0h-4Z"/></g></g></svg>