<svg xmlns="http://www.w3.org/2000/svg" viewBox="0 0 280.66 218.53"><g id="Layer_2" data-name="Layer 2"><g id="Layer_3" data-name="Layer 3"><path d="M280.66,137.21c-1,5.44-1.62,11-3.07,16.32C267,192.17,233.19,218.28,193,218.42c-58.28.2-116.57.07-174.85,0C7.84,218.45.08,211,0,201.18s7.51-17.48,17.74-17.75c5.2-.14,10.41,0,15.62,0q79.34,0,158.68,0c24.29,0,44.82-15.12,51.37-37.67a52.32,52.32,0,0,0-49.09-67.37c-29.48-.73-59-.17-88.51-.17a3.67,3.67,0,0,0-.77.23A16.74,16.74,0,0,0,106.32,80c3.61,3.63,7.27,7.2,10.84,10.86,7.32,7.49,7.51,18.26.5,25.28s-17.88,6.9-25.27-.45Q71.21,94.67,50.15,73.48c-7.54-7.59-7.53-18.08,0-25.64Q71.2,26.66,92.38,5.6c7.35-7.31,18.32-7.46,25.27-.47s6.84,17.78-.5,25.26c-4,4-8,8-12.68,12.67h3.72c27.77,0,55.54-.28,83.31.07,36.16.45,62.92,16.86,80,48.79a79.93,79.93,0,0,1,8.73,30,17,17,0,0,0,.47,2.09Z"/></g></g></svg>