<svg xmlns="http://www.w3.org/2000/svg" width="28.808" height="28.662" viewBox="0 0 28.808 28.662">
  <g id="bank" transform="translate(-0.001 -1.295)">
    <path id="Path_169" data-name="Path 169" d="M26.57,21.1a.674.674,0,0,0,.674-.672V19.255h.884a.681.681,0,0,0,.68-.68V17.031a.681.681,0,0,0-.68-.68H26.912V11.712a1.506,1.506,0,0,0,.364.045,1.543,1.543,0,0,0,.4-.053,1.529,1.529,0,0,0,.367-2.8L15.224,1.5a1.714,1.714,0,0,0-1.638,0L.764,8.905A1.529,1.529,0,0,0,1.9,11.712v4.638H.682a.681.681,0,0,0-.68.68v1.544a.681.681,0,0,0,.68.68h.884v1.168a.673.673,0,0,0,.672.672h.508v4.116H2.239a.674.674,0,0,0-.672.674v1.167H.682a.681.681,0,0,0-.68.68v1.544a.681.681,0,0,0,.68.68H13.524a.422.422,0,1,0,0-.844H.846V27.9H27.965v1.217H15.471a.422.422,0,1,0,0,.844H28.128a.681.681,0,0,0,.68-.68V27.733a.681.681,0,0,0-.68-.68h-.884V25.886a.675.675,0,0,0-.674-.674h-.508V21.1h.508ZM1.872,10.822a.687.687,0,0,1-.936-.251h0a.686.686,0,0,1,.251-.935l12.822-7.4a.811.811,0,0,1,.4-.094.8.8,0,0,1,.4.095l12.821,7.4a.684.684,0,0,1-.683,1.186L14.615,3.707a.422.422,0,0,0-.422,0ZM.846,17.195H13.524a.422.422,0,1,0,0-.844H2.742V11.294L14.4,4.56l11.664,6.734v5.057H15.4a.422.422,0,1,0,0,.844H27.965v1.217H.846Zm10.942,3.057v-1h5.232v1Zm4.051.844v4.116H12.97V21.1ZM2.411,20.252v-1H7.641v1Zm4.051.844v4.116H3.591V21.1Zm1.18,5.957H2.411v-1H7.641Zm3.3-1.167v1.167H8.485V25.886a.674.674,0,0,0-.672-.674H7.305V21.1h.508a.673.673,0,0,0,.672-.672V19.255h2.459v1.168a.674.674,0,0,0,.674.672h.508v4.116h-.508A.675.675,0,0,0,10.944,25.886Zm6.076,1.167H11.788v-1h5.232Zm3.3-1.167v1.167H17.865V25.886a.675.675,0,0,0-.674-.674h-.508V21.1h.508a.674.674,0,0,0,.674-.672V19.255h2.459v1.168A.674.674,0,0,0,21,21.1h.508v4.116H21A.675.675,0,0,0,20.324,25.886Zm6.076.17v1H21.168v-1Zm-4.051-.844V21.1h2.869v4.116Zm-1.182-4.96v-1H26.4v1Z" transform="translate(0 0)" fill="#321d6f"/>
    <path id="Path_170" data-name="Path 170" d="M229.141,89.268a1.773,1.773,0,1,0-1.773,1.773A1.775,1.775,0,0,0,229.141,89.268Zm-2.7,0a.929.929,0,1,1,.929.929A.93.93,0,0,1,226.439,89.268Z" transform="translate(-212.901 -81.35)" fill="#321d6f"/>
    <g id="Group_162" data-name="Group 162" transform="translate(6.948 10.925)">
      <path id="Path_171" data-name="Path 171" d="M125.842,174.983a1.174,1.174,0,0,0-.992-1.8H123.9a.422.422,0,0,0-.422.422v3.277a.422.422,0,0,0,.422.422h0l1.116,0a1.3,1.3,0,0,0,.826-2.312Zm-.992-.961a.332.332,0,0,1,0,.664h-.53v-.665h.53Zm.166,2.429-.7,0v-.922h.7a.46.46,0,0,1,0,.92Z" transform="translate(-123.476 -173.137)" fill="#321d6f"/>
      <path id="Path_172" data-name="Path 172" d="M189.424,173.5l0-.011a.494.494,0,0,0-.459-.308h0a.5.5,0,0,0-.459.308l0,.01-1.231,3.231a.422.422,0,0,0,.789.3l.2-.533h1.395l.2.532a.422.422,0,1,0,.79-.3Zm-.844,2.153.379-1,.376,1Z" transform="translate(-183.652 -173.138)" fill="#321d6f"/>
      <path id="Path_173" data-name="Path 173" d="M266.517,173.179h0a.422.422,0,0,0-.418.426l.019,1.957-1.516-2.195a.422.422,0,0,0-.769.24v3.271a.422.422,0,1,0,.844,0v-1.917l1.443,2.089a.465.465,0,0,0,.525.193.482.482,0,0,0,.329-.479l-.031-3.167A.422.422,0,0,0,266.517,173.179Z" transform="translate(-255.932 -173.138)" fill="#321d6f"/>
      <path id="Path_174" data-name="Path 174" d="M344.046,175.886l-1.474-1.422,1.349-1.24a.422.422,0,0,0-.571-.621l-1.077.99v-.721a.422.422,0,1,0-.844,0v3.318a.422.422,0,0,0,.844,0v-.842l1.188,1.146a.422.422,0,1,0,.586-.607Z" transform="translate(-329.165 -172.45)" fill="#321d6f"/>
    </g>
  </g>
</svg>
