<svg xmlns="http://www.w3.org/2000/svg" width="39.881" height="19.253" viewBox="0 0 39.881 19.253">
  <g id="_13-car" data-name="13-car" transform="translate(0.25 0.25)">
    <g id="linear_color" data-name="linear color" transform="translate(0 0)">
      <circle id="Ellipse_9" data-name="Ellipse 9" transform="translate(8.537 14.023)" fill="#321d6f"/>
      <circle id="Ellipse_10" data-name="Ellipse 10" transform="translate(28.49 14.023)" fill="#321d6f"/>
      <path id="Path_29" data-name="Path 29" d="M40.99,107.269l-6.9-1.047-6.61-5.44A3.448,3.448,0,0,0,25.295,100H16.141a3.421,3.421,0,0,0-2.685,1.29l-3.968,4.961H6.813A2.816,2.816,0,0,0,4,109.064v3.125a3.442,3.442,0,0,0,3.438,3.438H9.111a4.062,4.062,0,0,0,7.905,0h14.6a4.062,4.062,0,0,0,7.905,0h1.048a2.816,2.816,0,0,0,2.813-2.813v-2.764A2.8,2.8,0,0,0,40.99,107.269Zm-14.7-5.038,4.885,4.02H22.128v-4.376h3.167A1.568,1.568,0,0,1,26.287,102.231Zm-11.367.23a1.555,1.555,0,0,1,1.22-.586H16.5v4.376H11.889Zm-1.857,14.416a2.188,2.188,0,1,1,2.188-2.188A2.188,2.188,0,0,1,13.064,116.878Zm22.5,0a2.188,2.188,0,1,1,2.188-2.188A2.188,2.188,0,0,1,35.567,116.878Zm5.938-4.063a.939.939,0,0,1-.938.938H39.52a4.062,4.062,0,0,0-7.905,0h-14.6a4.062,4.062,0,0,0-7.905,0H7.438a1.565,1.565,0,0,1-1.563-1.563v-3.125a.939.939,0,0,1,.938-.938H17.44a.938.938,0,0,0,.938-.938v-5.313h1.875v5.313a.938.938,0,0,0,.938.938H34.136l6.573,1a.944.944,0,0,1,.8.927Z" transform="translate(-4 -100)" fill="#321d6f" stroke="#eee8ff" stroke-width="0.5"/>
      <path id="Path_30" data-name="Path 30" d="M214.188,212h-1.25a.938.938,0,1,0,0,1.875h1.25a.938.938,0,0,0,0-1.875Z" transform="translate(-195.747 -203.249)" fill="#5f64c7"/>
      <circle id="Ellipse_11" data-name="Ellipse 11" transform="translate(8.537 14.023)" fill="#321d6f"/>
      <circle id="Ellipse_12" data-name="Ellipse 12" transform="translate(28.49 14.023)" fill="#321d6f"/>
    </g>
  </g>
</svg>
