<svg xmlns="http://www.w3.org/2000/svg" width="31.024" height="35.253" viewBox="0 0 31.024 35.253">
  <g id="Group_93" data-name="Group 93" transform="translate(-135 -426)">
    <g id="video" transform="translate(135 426)">
      <path id="Path_105" data-name="Path 105" d="M30.336,14.23H6.845L29.408,7.694a.689.689,0,0,0,.47-.853L28.7,2.765A3.854,3.854,0,0,0,25.011,0a3.815,3.815,0,0,0-1.06.151L2.766,6.288A3.841,3.841,0,0,0,.152,11.034l1.154,3.982v16.4a3.836,3.836,0,0,0,3.832,3.832H13.41a.689.689,0,1,0,0-1.377H5.137a2.457,2.457,0,0,1-2.455-2.455v-9.37H29.647v9.37a2.457,2.457,0,0,1-2.455,2.455H18.919a.689.689,0,1,0,0,1.377h8.274a3.836,3.836,0,0,0,3.832-3.832v-16.5a.688.688,0,0,0-.689-.689ZM18.195,20.674l2.925-5.067h3.8L22,20.674Zm-5.4,0,2.925-5.067h3.8L16.6,20.674Zm-5.395,0,2.925-5.067h3.805l-2.925,5.067Zm2.56-8.913-4.9-4.705,3.67-1.063a.683.683,0,0,0,.09.106l4.9,4.705-3.67,1.063A.685.685,0,0,0,9.964,11.761ZM19.191,3.1l4.9,4.705-3.67,1.063a.671.671,0,0,0-.09-.106l-4.9-4.705L19.1,2.99A.683.683,0,0,0,19.191,3.1ZM14.008,4.6l4.9,4.7-3.67,1.063a.671.671,0,0,0-.09-.106l-4.9-4.705,3.67-1.063A.727.727,0,0,0,14.008,4.6ZM24.334,1.474a2.434,2.434,0,0,1,.677-.1,2.47,2.47,0,0,1,2.364,1.771l.989,3.414-2.762.8a.7.7,0,0,0-.091-.106l-4.9-4.7ZM1.685,8.786A2.437,2.437,0,0,1,3.149,7.611l.4-.117a.7.7,0,0,0,.09.106l4.9,4.705L2.464,14.066l-.989-3.414a2.437,2.437,0,0,1,.211-1.865Zm1,6.822H8.74L5.814,20.674H2.682ZM23.59,20.674l2.925-5.067h3.132v5.067Zm0,0" transform="translate(0 0)" fill="#321d6f" fill-rule="evenodd"/>
      <path id="Path_106" data-name="Path 106" d="M203.493,348.572a.688.688,0,0,0-.344-.6l-6.049-3.492a.689.689,0,0,0-1.033.6v6.985a.688.688,0,0,0,1.033.6l6.049-3.492A.689.689,0,0,0,203.493,348.572Zm-6.049,2.3v-4.6l3.984,2.3Zm0,0" transform="translate(-182.567 -320.679)" fill="#5f64c7" fill-rule="evenodd"/>
      <path id="Path_107" data-name="Path 107" d="M225.462,492a.689.689,0,1,0,.689.689A.69.69,0,0,0,225.462,492Zm0,0" transform="translate(-209.297 -458.125)" fill="#321d6f" fill-rule="evenodd"/>
    </g>
    <path id="Path_108" data-name="Path 108" d="M3901.813,469.833h16.76" transform="translate(-3758.374 -9.274)" fill="none" stroke="#1e3d59" stroke-width="1.3"/>
  </g>
</svg>
