<svg xmlns="http://www.w3.org/2000/svg" viewBox="0 0 107.31 97.72"><g id="Layer_2" data-name="Layer 2"><g id="Layer_1-2" data-name="Layer 1"><path d="M103.41,18.14a9.48,9.48,0,0,0-4.49-.79q-31.33,0-62.68,0a1.53,1.53,0,0,1-1.63-1.08,62.43,62.43,0,0,0-5.8-10.38,17,17,0,0,0-4.93-4.87A6.05,6.05,0,0,0,17.19,1c-.63.39-1.3.73-1.94,1.13C6.07,7.91,1.09,16.32.15,27.07-.62,35.92,1.57,44.23,5.68,52,10.15,60.41,15.08,68.6,20,76.78a47.15,47.15,0,0,0,7.71,9.54c6.68,6.45,14.39,10.8,23.87,11.34a31.5,31.5,0,0,0,19.5-5.18,5.68,5.68,0,0,0,2.6-4.17,10.09,10.09,0,0,0-.41-4.43C71.51,78,68,73,64.33,68.21a15.22,15.22,0,0,0-2.54-2.47,9.89,9.89,0,0,0-11.86-1q-2.1,1.2-4.19,2.41a4.28,4.28,0,0,1-3.19.55,8.31,8.31,0,0,1-5.63-3.95c-3.76-6.41-7.47-12.85-11.2-19.27a8.58,8.58,0,0,1-.93-6,4.55,4.55,0,0,1,2.11-3.28c1.51-.9,3-1.76,4.63-2.68a4,4,0,0,0,1.55,1.94Q44.8,43.73,56.49,53c4.37,3.44,8.06,3.47,12.4.06L94.82,32.64l7.42-5.82V70.14c0,1.54-.55,2.13-2.09,2.25-.43,0-.87,0-1.3,0H77.56a11.62,11.62,0,0,0-1.18,0,2.53,2.53,0,0,0,.1,5.06c8,0,15.93.07,23.89,0a6.8,6.8,0,0,0,6.93-6.88q0-23.18,0-46.36A6.45,6.45,0,0,0,103.41,18.14ZM29.4,28c-1.4.78-2.74,1.71-4.18,2.41-4.55,2.23-6.14,7.14-5.61,11.77A12.37,12.37,0,0,0,21.27,47C25,53.47,28.7,60,32.54,66.38a12.54,12.54,0,0,0,11.93,6.43,8.33,8.33,0,0,0,3.78-1.2c1.58-.9,3.16-1.77,4.71-2.7a4.11,4.11,0,0,1,4.66.09,11.46,11.46,0,0,1,2.73,2.42,47.08,47.08,0,0,1,7.49,12.22c1.55,3.81,1.44,4.13-2.07,6a26.57,26.57,0,0,1-12.85,3C45,92.58,38.22,89,32.26,83.58a45.45,45.45,0,0,1-8.55-10.5c-4.56-7.76-9.26-15.45-13.48-23.4A41,41,0,0,1,5.12,29.07,26.73,26.73,0,0,1,16.49,7.3c1.07-.79,2.31-1.35,3.45-2a1,1,0,0,1,1.2.08,7.7,7.7,0,0,1,2.14,1.83,43.6,43.6,0,0,1,7.9,14.77,8.82,8.82,0,0,1,.31,1.86A4,4,0,0,1,29.4,28ZM67,48c-.52.41-1,.84-1.58,1.24-2,1.51-3.47,1.51-5.44,0L50,41.36Q42.6,35.6,35.23,29.89c-.36-.28-.29-.43-.1-.72a9.41,9.41,0,0,0,1.41-6c-.08-.78.29-.79.87-.79,5.2,0,10.4,0,15.6,0H99.62Z"/></g></g></svg>