<svg xmlns="http://www.w3.org/2000/svg" width="28.668" height="28.668" viewBox="0 0 28.668 28.668">
  <g id="creditor" transform="translate(-2 -2)">
    <path id="Path_147" data-name="Path 147" d="M18.256,12.512A5.256,5.256,0,1,0,13,7.256,5.256,5.256,0,0,0,18.256,12.512Zm0-9.556a4.3,4.3,0,1,1-4.3,4.3,4.3,4.3,0,0,1,4.3-4.3Z" transform="translate(-5.744 0)" fill="#c0c8d5"/>
    <path id="Path_148" data-name="Path 148" d="M21.956,12.689h.956v-.956a.956.956,0,0,0,.956-.956V9.822a.956.956,0,0,0-.956-.956h-.956V7.911h1.911V6.956h-.956V6h-.956v.956A.956.956,0,0,0,21,7.911v.956a.956.956,0,0,0,.956.956h.956v.956H21v.956h.956Z" transform="translate(-9.922 -2.089)" fill="#c0c8d5"/>
    <path id="Path_149" data-name="Path 149" d="M58.867,2.956h-.956V2h-.956v.956H56v.956h.956v.956h.956V3.911h.956Z" transform="translate(-28.198)" fill="#c0c8d5"/>
    <path id="Path_150" data-name="Path 150" d="M55.911,13h-.956v.956H54v.956h.956v.956h.956v-.956h.956v-.956h-.956Z" transform="translate(-27.154 -5.744)" fill="#c0c8d5"/>
    <path id="Path_151" data-name="Path 151" d="M41.956,5.867h.956V4.911h.956V3.956h-.956V3h-.956v.956H41v.956h.956Z" transform="translate(-20.366 -0.522)" fill="#c0c8d5"/>
    <path id="Path_152" data-name="Path 152" d="M20.157,29.023h4.778a4.619,4.619,0,0,0,4.3-4.778V22.334a11.576,11.576,0,0,0-3.4-7.5,1.419,1.419,0,0,0-.244-2.37L26.822,8.62a.465.465,0,0,0-.124-.487.478.478,0,0,0-.5-.105l-3.708,1.39L19.268,8.96a.462.462,0,0,0-.425.158.49.49,0,0,0-.105.44l.779,2.9a1.419,1.419,0,0,0-.263,2.379,11.576,11.576,0,0,0-3.4,7.5v.32L11.781,20.48a.465.465,0,0,0-.42-.014l-3.627,1.61v-.22a.478.478,0,0,0-.478-.478H5.345a.478.478,0,0,0-.478.478v.291L2.631,21.4a.478.478,0,0,0-.43.067.47.47,0,0,0-.2.387v8.6a.47.47,0,0,0,.2.387.449.449,0,0,0,.277.091.566.566,0,0,0,.153-.024l2.236-.745v.291a.478.478,0,0,0,.478.478H7.256a.478.478,0,0,0,.473-.444L11.738,33.7a.467.467,0,0,0,.3.105H25.89a1.911,1.911,0,1,0,0-3.822H16.5l-3.584-2.867h3.846A4.166,4.166,0,0,0,20.157,29.023Zm-15.29.134-1.911.635V22.52l1.911.635Zm1.911.822H5.822V22.334h.956Zm15.7-19.595a.486.486,0,0,0,.234-.024l2.9-1.089-.97,3.029H20.467l-.616-2.293Zm-2.322,2.872h4.778a.478.478,0,0,1,0,.956H20.157a.478.478,0,1,1,0-.956Zm-3.345,9.078a10.544,10.544,0,0,1,3.517-7.167h4.434a10.544,10.544,0,0,1,3.517,7.167v1.911a3.7,3.7,0,0,1-3.345,3.822H20.157a3.084,3.084,0,0,1-2.188-.975A1.433,1.433,0,0,0,19.2,25.678v-.956a.47.47,0,0,0-.253-.42L16.812,23.16ZM11.26,27.007l4.778,3.822a.467.467,0,0,0,.3.105H25.89a.956.956,0,1,1,0,1.911H12.2L7.734,29.271V23.122l3.8-1.691,6.708,3.579v.669a.478.478,0,0,1-.478.478H11.556a.478.478,0,0,0-.449.32A.47.47,0,0,0,11.26,27.007Z" transform="translate(0 -3.132)" fill="#c0c8d5"/>
    <path id="Path_153" data-name="Path 153" d="M42.345,29.778h-.956a1.433,1.433,0,0,1,0-2.867h2.867v-.956H42.345V25h-.956v.956a2.389,2.389,0,0,0,0,4.778h.956a1.433,1.433,0,0,1,0,2.867H39.478v.956h1.911v.956h.956v-.956a2.389,2.389,0,0,0,0-4.778Z" transform="translate(-19.321 -12.01)" fill="#c0c8d5"/>
  </g>
</svg>
