<svg id="credit-card" xmlns="http://www.w3.org/2000/svg" width="32.67" height="25.598" viewBox="0 0 32.67 25.598">
  <g id="Group_138" data-name="Group 138" transform="translate(0 0)">
    <g id="Group_137" data-name="Group 137">
      <path id="Path_143" data-name="Path 143" d="M32.268,57.543a1.59,1.59,0,0,0-1.1-.537L5.209,55.419a1.6,1.6,0,0,0-1.7,1.5l-.352,5.757H1.6a1.6,1.6,0,0,0-1.6,1.6V79.413a1.6,1.6,0,0,0,1.6,1.6H27.608a1.6,1.6,0,0,0,1.6-1.6V75.258l.84.051q.05,0,.1,0a1.6,1.6,0,0,0,1.6-1.5L32.667,58.7A1.59,1.59,0,0,0,32.268,57.543Zm-4.336,21.87a.325.325,0,0,1-.324.324H1.6a.325.325,0,0,1-.324-.324v-10.9H24.221a.638.638,0,1,0,0-1.276H1.276V64.276a.325.325,0,0,1,.324-.324H27.608a.325.325,0,0,1,.324.324Zm3.389-19.606L9.441,58.475a.638.638,0,0,0-.078,1.274l21.879,1.332-.774,12.65a.325.325,0,0,1-.344.3l-.918-.056v-9.7a1.6,1.6,0,0,0-1.6-1.6H4.44L4.787,57a.325.325,0,0,1,.344-.3L31.089,58.28a.324.324,0,0,1,.3.344Z" transform="translate(0 -55.416)" fill="#321d6f"/>
    </g>
  </g>
  <g id="Group_140" data-name="Group 140" transform="translate(16.99 17.512)">
    <g id="Group_139" data-name="Group 139">
      <path id="Path_144" data-name="Path 144" d="M272.873,329.863a3.041,3.041,0,0,0-1.773.569,3.058,3.058,0,1,0,0,4.979,3.057,3.057,0,1,0,1.773-5.548Zm-2.643,4.594a1.782,1.782,0,1,1,0-3.07,3.048,3.048,0,0,0,0,3.07Zm2.643.247a1.782,1.782,0,1,1,1.782-1.782A1.784,1.784,0,0,1,272.873,334.7Z" transform="translate(-266.268 -329.863)" fill="#5f64c7"/>
    </g>
  </g>
  <g id="Group_142" data-name="Group 142" transform="translate(3.125 20.156)">
    <g id="Group_141" data-name="Group 141">
      <path id="Path_145" data-name="Path 145" d="M50.243,371.815a.675.675,0,0,0-.036-.119.649.649,0,0,0-.059-.11.614.614,0,0,0-.079-.1.644.644,0,0,0-.576-.175.68.68,0,0,0-.119.036.637.637,0,0,0-.207.138.617.617,0,0,0-.08.1.649.649,0,0,0-.059.11.676.676,0,0,0-.036.119.639.639,0,0,0-.012.125.628.628,0,0,0,.012.124.644.644,0,0,0,.036.119.628.628,0,0,0,.059.11.633.633,0,0,0,.177.176.648.648,0,0,0,.11.059.675.675,0,0,0,.119.036.634.634,0,0,0,.576-.174.611.611,0,0,0,.079-.1.63.63,0,0,0,.059-.11.645.645,0,0,0,.036-.119.629.629,0,0,0,.013-.124A.64.64,0,0,0,50.243,371.815Z" transform="translate(-48.98 -371.302)" fill="#321d6f"/>
    </g>
  </g>
  <g id="Group_144" data-name="Group 144" transform="translate(5.678 20.156)">
    <g id="Group_143" data-name="Group 143">
      <path id="Path_146" data-name="Path 146" d="M93.454,371.3H89.615a.638.638,0,0,0,0,1.276h3.839a.638.638,0,0,0,0-1.276Z" transform="translate(-88.977 -371.297)" fill="#321d6f"/>
    </g>
  </g>
</svg>
