<svg xmlns="http://www.w3.org/2000/svg" width="23.137" height="35.511" viewBox="0 0 23.137 35.511">
  <g id="gas-tank" transform="translate(-90.65 0.35)">
    <path id="Path_94" data-name="Path 94" d="M109.357,8.309V2.04h1.02a1.02,1.02,0,0,0,0-2.04H94.06a1.02,1.02,0,1,0,0,2.04h1.02V8.309A4.424,4.424,0,0,0,91,12.714V30.391a4.424,4.424,0,0,0,4.419,4.419h13.6a4.424,4.424,0,0,0,4.419-4.419V12.714A4.424,4.424,0,0,0,109.357,8.309ZM97.119,2.04h10.2V8.295h-4.079V6.255h1.02a1.02,1.02,0,1,0,0-2.04h-4.079a1.02,1.02,0,0,0,0,2.04h1.02v2.04H97.119ZM111.4,30.391a2.382,2.382,0,0,1-2.38,2.38h-13.6a2.382,2.382,0,0,1-2.38-2.38v-.34H111.4Zm0-2.38H93.04V15.094H111.4Zm0-14.958H93.04v-.34a2.382,2.382,0,0,1,2.38-2.38h13.6a2.382,2.382,0,0,1,2.38,2.38Z" fill="#321d6f" stroke="#eee8ff" stroke-width="0.7"/>
    <path id="Path_95" data-name="Path 95" d="M213.179,260.839a3.121,3.121,0,0,0,2.791-4.517l-1.879-3.758a1.02,1.02,0,0,0-1.824,0l-1.879,3.758a3.121,3.121,0,0,0,2.791,4.517Zm-.967-3.6.967-1.934.967,1.934a1.081,1.081,0,1,1-1.934,0Z" transform="translate(-110.961 -234.867)" fill="#5f64c7" stroke="#eee8ff" stroke-width="0.7"/>
  </g>
</svg>
