<svg xmlns="http://www.w3.org/2000/svg" width="19.023" height="29.239" viewBox="0 0 19.023 29.239">
  <g id="Gas" transform="translate(-90.75 0.25)">
    <path id="Path_94" data-name="Path 94" d="M106.156,6.86V1.684H107A.842.842,0,1,0,107,0H93.526a.842.842,0,1,0,0,1.684h.842V6.86A3.653,3.653,0,0,0,91,10.5V25.091a3.653,3.653,0,0,0,3.649,3.649h11.226a3.653,3.653,0,0,0,3.649-3.649V10.5A3.653,3.653,0,0,0,106.156,6.86Zm-10.1-5.176h8.42V6.848H101.1V5.164h.842a.842.842,0,1,0,0-1.684H98.578a.842.842,0,0,0,0,1.684h.842V6.848H96.052Zm11.788,23.407a1.967,1.967,0,0,1-1.965,1.965H94.649a1.967,1.967,0,0,1-1.965-1.965V24.81h15.156Zm0-1.965H92.684V12.461h15.156Zm0-12.349H92.684V10.5a1.967,1.967,0,0,1,1.965-1.965h11.226a1.967,1.967,0,0,1,1.965,1.965Z" fill="#0084ff" stroke="#c5e1fc" stroke-width="0.5"/>
    <path id="Path_95" data-name="Path 95" d="M212.635,259.3a2.577,2.577,0,0,0,2.3-3.729l-1.551-3.1a.842.842,0,0,0-1.506,0l-1.551,3.1a2.577,2.577,0,0,0,2.3,3.729Zm-.8-2.976.8-1.6.8,1.6a.893.893,0,1,1-1.6,0Z" transform="translate(-112.373 -237.855)" fill="#0084ff" stroke="#c5e1fc" stroke-width="0.5"/>
  </g>
</svg>
