<svg xmlns="http://www.w3.org/2000/svg" width="25.092" height="25.095" viewBox="0 0 25.092 25.095">
  <path id="home" d="M24.918,10.914l0,0L14.68.676a2.31,2.31,0,0,0-3.267,0L1.181,10.907l-.01.011a2.309,2.309,0,0,0,1.537,3.936c.024,0,.047,0,.071,0h.408V22.39a2.707,2.707,0,0,0,2.7,2.7h4a.735.735,0,0,0,.735-.735V18.453a1.235,1.235,0,0,1,1.234-1.234h2.362a1.235,1.235,0,0,1,1.234,1.234v5.906a.735.735,0,0,0,.735.735h4a2.707,2.707,0,0,0,2.7-2.7V14.857h.378a2.311,2.311,0,0,0,1.635-3.943Zm-1.041,2.226a.835.835,0,0,1-.594.246H22.17a.735.735,0,0,0-.735.735V22.39A1.235,1.235,0,0,1,20.2,23.624h-3.27V18.453a2.707,2.707,0,0,0-2.7-2.7H11.865a2.707,2.707,0,0,0-2.7,2.7v5.171H5.891A1.235,1.235,0,0,1,4.658,22.39V14.122a.735.735,0,0,0-.735-.735H2.828l-.034,0a.839.839,0,0,1-.578-1.433h0L12.452,1.716a.839.839,0,0,1,1.187,0L23.874,11.95l0,0a.842.842,0,0,1,0,1.186Zm0,0" transform="translate(-0.5 0.001)" fill="#c0c8d5"/>
</svg>
