<svg id="lamp" xmlns="http://www.w3.org/2000/svg" width="33" height="33" viewBox="0 0 33 33">
  <g id="Group_62" data-name="Group 62" transform="translate(6.875 6.875)">
    <path id="Path_83" data-name="Path 83" d="M16.688,31.125H12.563A2.233,2.233,0,0,1,10.5,28.65V25.763a4.775,4.775,0,0,0-1.788-3.575A9.5,9.5,0,0,1,5,14.488,9.785,9.785,0,0,1,14.487,5a9.664,9.664,0,0,1,6.875,2.75,9.789,9.789,0,0,1,2.887,6.875,9.247,9.247,0,0,1-3.575,7.425A5.02,5.02,0,0,0,18.75,25.9v3.163a2.115,2.115,0,0,1-2.062,2.063ZM14.625,6.375a8.433,8.433,0,0,0-8.25,8.113,8.082,8.082,0,0,0,3.162,6.6,5.992,5.992,0,0,1,2.338,4.675V28.65c0,.275,0,1.1.688,1.1h4.125a.65.65,0,0,0,.687-.687V25.9a6.682,6.682,0,0,1,2.475-4.95,8.018,8.018,0,0,0,3.025-6.325A8.219,8.219,0,0,0,20.4,8.712a8.105,8.105,0,0,0-5.775-2.337Z" transform="translate(-5 -5)" fill="#fff"/>
  </g>
  <g id="Group_63" data-name="Group 63" transform="translate(12.375 27.5)">
    <path id="Path_84" data-name="Path 84" d="M16.563,21.375H9.687a.688.688,0,0,1,0-1.375h6.875a.687.687,0,1,1,0,1.375Z" transform="translate(-9 -20)" fill="#fff"/>
  </g>
  <g id="Group_64" data-name="Group 64" transform="translate(15.812)">
    <path id="Path_85" data-name="Path 85" d="M12.188,4.125a.65.65,0,0,1-.687-.688V.688a.687.687,0,1,1,1.375,0v2.75A.65.65,0,0,1,12.188,4.125Z" transform="translate(-11.5)" fill="#fff"/>
  </g>
  <g id="Group_65" data-name="Group 65" transform="translate(24.956 4.744)">
    <path id="Path_86" data-name="Path 86" d="M18.906,6.681a.827.827,0,0,1-.55-.138.665.665,0,0,1,0-.962l1.925-1.925a.681.681,0,0,1,.962.962L19.319,6.544a1.385,1.385,0,0,1-.413.138Z" transform="translate(-18.15 -3.45)" fill="#fff"/>
  </g>
  <g id="Group_66" data-name="Group 66" transform="translate(28.875 15.812)">
    <path id="Path_87" data-name="Path 87" d="M24.437,12.875h-2.75a.687.687,0,1,1,0-1.375h2.75a.687.687,0,1,1,0,1.375Z" transform="translate(-21 -11.5)" fill="#fff"/>
  </g>
  <g id="Group_67" data-name="Group 67" transform="translate(24.956 25.094)">
    <path id="Path_88" data-name="Path 88" d="M20.831,21.481a.827.827,0,0,1-.55-.138l-1.925-1.925a.681.681,0,0,1,.963-.963l1.925,1.925a.665.665,0,0,1,0,.962c0,.138-.137.138-.412.138Z" transform="translate(-18.15 -18.25)" fill="#fff"/>
  </g>
  <g id="Group_68" data-name="Group 68" transform="translate(4.606 25.094)">
    <path id="Path_89" data-name="Path 89" d="M4.106,21.481a.827.827,0,0,1-.55-.138.665.665,0,0,1,0-.962l1.925-1.925a.681.681,0,0,1,.962.963L4.519,21.344A.505.505,0,0,1,4.106,21.481Z" transform="translate(-3.35 -18.25)" fill="#fff"/>
  </g>
  <g id="Group_69" data-name="Group 69" transform="translate(0 15.812)">
    <path id="Path_90" data-name="Path 90" d="M3.437,12.875H.688a.687.687,0,1,1,0-1.375h2.75a.687.687,0,1,1,0,1.375Z" transform="translate(0 -11.5)" fill="#fff"/>
  </g>
  <g id="Group_70" data-name="Group 70" transform="translate(4.606 4.606)">
    <path id="Path_91" data-name="Path 91" d="M6.031,6.719a.827.827,0,0,1-.55-.138L3.556,4.519a.681.681,0,0,1,.962-.963L6.444,5.481a.665.665,0,0,1,0,.962c-.138.137-.275.275-.413.275Z" transform="translate(-3.35 -3.35)" fill="#fff"/>
  </g>
  <g id="Group_71" data-name="Group 71" transform="translate(15.812 10.313)">
    <path id="Path_92" data-name="Path 92" d="M17.688,14.375A.65.65,0,0,1,17,13.688a4.872,4.872,0,0,0-4.812-4.812.688.688,0,0,1,0-1.375,6.162,6.162,0,0,1,6.188,6.188A.65.65,0,0,1,17.688,14.375Z" transform="translate(-11.5 -7.5)" fill="#fff"/>
  </g>
</svg>
