<svg id="Light" xmlns="http://www.w3.org/2000/svg" width="27.261" height="27.261" viewBox="0 0 27.261 27.261">
  <g id="Group_62" data-name="Group 62" transform="translate(5.679 5.679)">
    <path id="Path_83" data-name="Path 83" d="M14.655,26.581H11.247a1.844,1.844,0,0,1-1.7-2.045V22.151A3.944,3.944,0,0,0,8.067,19.2,7.852,7.852,0,0,1,5,12.837,8.083,8.083,0,0,1,12.837,5a7.983,7.983,0,0,1,5.679,2.272A8.086,8.086,0,0,1,20.9,12.951a7.639,7.639,0,0,1-2.953,6.134,4.147,4.147,0,0,0-1.59,3.18v2.612a1.747,1.747,0,0,1-1.7,1.7Zm-1.7-20.445a6.966,6.966,0,0,0-6.815,6.7A6.677,6.677,0,0,0,8.748,18.29a4.95,4.95,0,0,1,1.931,3.862v2.385c0,.227,0,.909.568.909h3.408a.537.537,0,0,0,.568-.568V22.265a5.52,5.52,0,0,1,2.045-4.089,6.623,6.623,0,0,0,2.5-5.225,6.79,6.79,0,0,0-2.045-4.884,6.7,6.7,0,0,0-4.771-1.931Z" transform="translate(-5 -5)" fill="#ffb300"/>
  </g>
  <g id="Group_63" data-name="Group 63" transform="translate(10.223 22.717)">
    <path id="Path_84" data-name="Path 84" d="M15.247,21.136H9.568a.568.568,0,0,1,0-1.136h5.679a.568.568,0,1,1,0,1.136Z" transform="translate(-9 -20)" fill="#ffb300"/>
  </g>
  <g id="Group_64" data-name="Group 64" transform="translate(13.062)">
    <path id="Path_85" data-name="Path 85" d="M12.068,3.408A.537.537,0,0,1,11.5,2.84V.568a.568.568,0,1,1,1.136,0V2.84A.537.537,0,0,1,12.068,3.408Z" transform="translate(-11.5)" fill="#ffb300"/>
  </g>
  <g id="Group_65" data-name="Group 65" transform="translate(20.616 3.919)">
    <path id="Path_86" data-name="Path 86" d="M18.775,6.119a.683.683,0,0,1-.454-.114.549.549,0,0,1,0-.8l1.59-1.59a.562.562,0,0,1,.8.8l-1.59,1.59a1.144,1.144,0,0,1-.341.114Z" transform="translate(-18.15 -3.45)" fill="#ffb300"/>
  </g>
  <g id="Group_66" data-name="Group 66" transform="translate(23.853 13.062)">
    <path id="Path_87" data-name="Path 87" d="M23.84,12.636H21.568a.568.568,0,1,1,0-1.136H23.84a.568.568,0,1,1,0,1.136Z" transform="translate(-21 -11.5)" fill="#ffb300"/>
  </g>
  <g id="Group_67" data-name="Group 67" transform="translate(20.616 20.729)">
    <path id="Path_88" data-name="Path 88" d="M20.365,20.919a.683.683,0,0,1-.454-.114l-1.59-1.59a.562.562,0,1,1,.8-.8l1.59,1.59a.549.549,0,0,1,0,.8c0,.114-.114.114-.341.114Z" transform="translate(-18.15 -18.25)" fill="#ffb300"/>
  </g>
  <g id="Group_68" data-name="Group 68" transform="translate(3.805 20.729)">
    <path id="Path_89" data-name="Path 89" d="M3.975,20.919a.683.683,0,0,1-.454-.114.549.549,0,0,1,0-.8l1.59-1.59a.562.562,0,0,1,.8.8l-1.59,1.59A.417.417,0,0,1,3.975,20.919Z" transform="translate(-3.35 -18.25)" fill="#ffb300"/>
  </g>
  <g id="Group_69" data-name="Group 69" transform="translate(0 13.062)">
    <path id="Path_90" data-name="Path 90" d="M2.84,12.636H.568a.568.568,0,1,1,0-1.136H2.84a.568.568,0,1,1,0,1.136Z" transform="translate(0 -11.5)" fill="#ffb300"/>
  </g>
  <g id="Group_70" data-name="Group 70" transform="translate(3.805 3.805)">
    <path id="Path_91" data-name="Path 91" d="M5.565,6.133a.683.683,0,0,1-.454-.114l-1.59-1.7a.562.562,0,1,1,.8-.8l1.59,1.59a.549.549,0,0,1,0,.8c-.114.114-.227.227-.341.227Z" transform="translate(-3.35 -3.35)" fill="#ffb300"/>
  </g>
  <g id="Group_71" data-name="Group 71" transform="translate(13.062 8.519)">
    <path id="Path_92" data-name="Path 92" d="M16.611,13.179a.537.537,0,0,1-.568-.568,4.024,4.024,0,0,0-3.975-3.975.568.568,0,0,1,0-1.136,5.09,5.09,0,0,1,5.111,5.111A.537.537,0,0,1,16.611,13.179Z" transform="translate(-11.5 -7.5)" fill="#ffb300"/>
  </g>
</svg>
