<?xml version="1.0" encoding="utf-8"?>
<!-- Generator: Adobe Illustrator 24.3.0, SVG Export Plug-In . SVG Version: 6.00 Build 0)  -->
<svg version="1.1" id="Layer_1" xmlns="http://www.w3.org/2000/svg" xmlns:xlink="http://www.w3.org/1999/xlink" x="0px" y="0px"
	 viewBox="0 0 30 18" enable-background="new 0 0 30 18" xml:space="preserve">
<g id="Group_167" transform="translate(-23 -21)">
	<g id="Rectangle_48" transform="translate(23 21)">
		<path fill="#015DA6" d="M2,0h26c1.1,0,2,0.9,2,2l0,0c0,1.1-0.9,2-2,2H2C0.9,4,0,3.1,0,2l0,0C0,0.9,0.9,0,2,0z"/>
		<path fill="#015DA6" d="M2,0.5h26c0.8,0,1.5,0.7,1.5,1.5l0,0c0,0.8-0.7,1.5-1.5,1.5H2C1.2,3.5,0.5,2.8,0.5,2l0,0
			C0.5,1.2,1.2,0.5,2,0.5z"/>
	</g>
	<g id="Rectangle_49" transform="translate(23 28)">
		<path fill="#015DA6" d="M2,0h20c1.1,0,2,0.9,2,2l0,0c0,1.1-0.9,2-2,2H2C0.9,4,0,3.1,0,2l0,0C0,0.9,0.9,0,2,0z"/>
		<path fill="#015DA6" d="M2,0.5h20c0.8,0,1.5,0.7,1.5,1.5l0,0c0,0.8-0.7,1.5-1.5,1.5H2C1.2,3.5,0.5,2.8,0.5,2l0,0
			C0.5,1.2,1.2,0.5,2,0.5z"/>
	</g>
	<g id="Rectangle_50" transform="translate(23 35)">
		<path fill="#015DA6" d="M2,0h12c1.1,0,2,0.9,2,2l0,0c0,1.1-0.9,2-2,2H2C0.9,4,0,3.1,0,2l0,0C0,0.9,0.9,0,2,0z"/>
		<path fill="#015DA6" d="M2,0.5h12c0.8,0,1.5,0.7,1.5,1.5l0,0c0,0.8-0.7,1.5-1.5,1.5H2C1.2,3.5,0.5,2.8,0.5,2l0,0
			C0.5,1.2,1.2,0.5,2,0.5z"/>
	</g>
</g>
</svg>
