<svg xmlns="http://www.w3.org/2000/svg" width="25.725" height="29.162" viewBox="0 0 25.725 29.162">
  <g id="request" transform="translate(0.25 0.25)">
    <path id="Path_164" data-name="Path 164" d="M157.067,427.008h-2.855a.369.369,0,1,0,0,.737h2.855a.369.369,0,0,0,0-.737Z" transform="translate(-147.554 -402.17)" fill="#321d6f" stroke="#321d6f" stroke-width="0.5"/>
    <path id="Path_165" data-name="Path 165" d="M69.75,22.759a6.859,6.859,0,0,0-3.395.9,3.441,3.441,0,0,0-2.148-.75H54.947a3.459,3.459,0,0,0-3.455,3.455V47.966a3.459,3.459,0,0,0,3.455,3.455h9.259a3.459,3.459,0,0,0,3.455-3.455v-11.5l.318-.188a6.874,6.874,0,1,0,1.77-13.516Zm-14.8.884h9.259a2.707,2.707,0,0,1,1.485.442,6.847,6.847,0,0,0-2.082,2.447H52.229V26.36A2.721,2.721,0,0,1,54.947,23.643Zm9.259,27.041H54.947a2.721,2.721,0,0,1-2.718-2.718V45.248h14.7v2.718a2.721,2.721,0,0,1-2.718,2.718Zm-8.959-6.173a4.361,4.361,0,0,1,8.659,0Zm11.677,0H64.65a5.1,5.1,0,0,0-10.145,0H52.229V27.269H63.29a6.894,6.894,0,0,0,1.679,7.3l-1.628,3.672a.369.369,0,0,0,.525.467l3.058-1.81Zm2.825-8.742a6.115,6.115,0,0,1-1.719-.244.369.369,0,0,0-.291.036l-3.257,1.927,1.267-2.859a.369.369,0,0,0-.091-.424,6.135,6.135,0,1,1,4.091,1.563Z" transform="translate(-51.492 -22.759)" fill="#321d6f" stroke="#321d6f" stroke-width="0.5"/>
    <path id="Path_166" data-name="Path 166" d="M138.518,189.052a3,3,0,1,0,3,3A3,3,0,0,0,138.518,189.052Zm0,5.257a2.26,2.26,0,1,1,2.26-2.26A2.26,2.26,0,0,1,138.518,194.309Z" transform="translate(-130.358 -178.835)" fill="#321d6f" stroke="#321d6f" stroke-width="0.5"/>
    <path id="Path_167" data-name="Path 167" d="M303.215,66.027a1.8,1.8,0,0,0-1.782,2.1l.01.061a11.206,11.206,0,0,1,.131,1.415h-.912a.369.369,0,0,0,0,.737h.91c0,.034,0,.069,0,.1a1.645,1.645,0,0,1-1.281,1.527.369.369,0,0,0,.081.728.373.373,0,0,0,.081-.009l.087-.021a1.819,1.819,0,0,1,1.367.282,2.572,2.572,0,0,0,2.587.17l.324-.162a.369.369,0,0,0-.329-.66l-.324.162a1.834,1.834,0,0,1-1.844-.121,2.578,2.578,0,0,0-.672-.325,2.373,2.373,0,0,0,.662-1.539c0-.045,0-.091,0-.136h1.352a.369.369,0,0,0,0-.737h-1.349a11.953,11.953,0,0,0-.14-1.53l-.01-.061a1.076,1.076,0,1,1,2.138-.168v.283a.369.369,0,1,0,.737,0v-.283A1.824,1.824,0,0,0,303.215,66.027Z" transform="translate(-284.729 -63.368)" fill="#321d6f" stroke="#321d6f" stroke-width="0.5"/>
  </g>
</svg>
