<svg xmlns="http://www.w3.org/2000/svg" width="29.571" height="35.565" viewBox="0 0 29.571 35.565">
  <g id="satellite-dish" transform="translate(-43.144)">
    <g id="Group_95" data-name="Group 95" transform="translate(63.65 12.825)">
      <g id="Group_94" data-name="Group 94">
        <path id="Path_109" data-name="Path 109" d="M339.573,184.884a.695.695,0,0,0-1.072.883l.027.032a.695.695,0,0,0,1.045-.915Z" transform="translate(-338.346 -184.635)" fill="#321d6f"/>
      </g>
    </g>
    <g id="Group_97" data-name="Group 97" transform="translate(43.144 3.751)">
      <g id="Group_96" data-name="Group 96">
        <path id="Path_110" data-name="Path 110" d="M59.391,77.1q.412.026.818.026a11.185,11.185,0,0,0,8.03-3.227c.552-.552,1.092-1.648.531-3.736a16.943,16.943,0,0,0-2.463-4.924.695.695,0,0,0-1.145.786,15.579,15.579,0,0,1,2.266,4.5c.3,1.13.242,1.98-.172,2.394-.625.625-2.182.439-4.164-.5A23.37,23.37,0,0,1,58.4,69.345a3.4,3.4,0,0,0,.211-4.008l3.615-3.615a2.24,2.24,0,1,0-.982-.982l-3.615,3.615a3.4,3.4,0,0,0-4,.208,23.3,23.3,0,0,1-3.034-4.642c-.937-1.982-1.124-3.538-.5-4.164.935-.935,4.219-.112,8.461,3.256a.695.695,0,0,0,.864-1.088,21.182,21.182,0,0,0-5.88-3.467c-2.518-.878-3.8-.313-4.427.317h0a11.294,11.294,0,0,0-3.2,8.847,14.353,14.353,0,0,0,4.273,9.2A15.427,15.427,0,0,0,51.6,74.079l-.006.016-1.934,6.162H48.012a4.873,4.873,0,0,0-4.868,4.868.7.7,0,0,0,.695.695h19.02a.7.7,0,0,0,.695-.695,4.873,4.873,0,0,0-4.868-4.868H56.408V76.568A13.5,13.5,0,0,0,59.391,77.1Zm3.251-17.975a.851.851,0,1,1,0,1.2A.848.848,0,0,1,62.642,59.123Zm-6.87,6.066a1.994,1.994,0,0,1,1.419.587h0a2.01,2.01,0,0,1,.156,2.662q-.72-.644-1.426-1.35-.726-.726-1.39-1.471A1.992,1.992,0,0,1,55.772,65.19ZM52.8,74.92a14.515,14.515,0,0,0,2.223,1.156v4.18h-3.9Zm5.889,6.726a3.484,3.484,0,0,1,3.409,2.784H44.6a3.484,3.484,0,0,1,3.409-2.784Zm-7.517-9.8A12.966,12.966,0,0,1,47.3,63.534a10.329,10.329,0,0,1,1.161-5.577,10.8,10.8,0,0,0,.879,2.557,28.65,28.65,0,0,0,5.6,7.559,28.648,28.648,0,0,0,7.559,5.6,10.809,10.809,0,0,0,2.552.878C60.866,76.791,55.141,75.815,51.169,71.843Z" transform="translate(-43.144 -54.005)" fill="#321d6f"/>
      </g>
    </g>
    <g id="Group_99" data-name="Group 99" transform="translate(62.56 3.708)">
      <g id="Group_98" data-name="Group 98">
        <path id="Path_111" data-name="Path 111" d="M323.35,53.385a.695.695,0,1,0,0,1.389,4.368,4.368,0,0,1,4.363,4.363.695.695,0,1,0,1.389,0A5.759,5.759,0,0,0,323.35,53.385Z" transform="translate(-322.655 -53.385)" fill="#5f64c7"/>
      </g>
    </g>
    <g id="Group_101" data-name="Group 101" transform="translate(62.56)">
      <g id="Group_100" data-name="Group 100">
        <path id="Path_112" data-name="Path 112" d="M323.35,0a.695.695,0,1,0,0,1.389,8.081,8.081,0,0,1,8.072,8.072.695.695,0,1,0,1.389,0A9.472,9.472,0,0,0,323.35,0Z" transform="translate(-322.655)" fill="#5f64c7"/>
      </g>
    </g>
  </g>
</svg>
