<svg id="send" xmlns="http://www.w3.org/2000/svg" width="28.083" height="24.409" viewBox="0 0 28.083 24.409">
  <path id="Path_168" data-name="Path 168" d="M28.065,34.489a.823.823,0,0,0-1.1-.942L.53,43.639a.823.823,0,0,0,0,1.536l7.427,2.868v9.034a.823.823,0,0,0,1.557.37l3.072-6.1,7.5,5.563a.823.823,0,0,0,1.277-.421C28.355,33.549,28.052,34.547,28.065,34.489ZM21.539,37.38,8.66,46.552l-5.541-2.14ZM9.6,47.9l11.226-7.995c-9.66,10.19-9.155,9.654-9.2,9.711-.063.084.109-.244-2.029,4Zm10.523,7-6.6-4.9,11.93-12.586Z" transform="translate(-0.001 -33.492)" fill="#321d6f"/>
</svg>
