<?xml version="1.0" encoding="utf-8"?>
<!-- Generator: Adobe Illustrator 24.3.0, SVG Export Plug-In . SVG Version: 6.00 Build 0)  -->
<svg version="1.1" id="Layer_1" xmlns="http://www.w3.org/2000/svg" xmlns:xlink="http://www.w3.org/1999/xlink" x="0px" y="0px"
	 viewBox="0 0 29.4 23" enable-background="new 0 0 29.4 23" xml:space="preserve">
<g id="Layer_2_1_">
	<g id="Layer_1-2">
		<path fill="#DBDBDB" d="M15.3,22.4c0,0.3-0.3,0.6-0.6,0.6c-0.3,0-0.6-0.3-0.6-0.6c0-0.3,0.3-0.6,0.6-0.6c0,0,0,0,0,0
			C15.1,21.9,15.3,22.1,15.3,22.4z"/>
		<path fill="#DBDBDB" d="M26.6,18.6c-0.6-0.1-1.3-0.2-1.9-0.2c1.7-0.5,2.6-1.6,2.5-3.1c-0.1-1.6-1.5-2.8-3.1-2.7
			c-1.1,0.1-2.1,0.8-2.5,1.9c-0.3,0.8-0.2,1.7,0.2,2.4c0.4,0.7,1.1,1.2,1.9,1.4c-0.1,0-0.2,0-0.3,0c-1.5,0-2.8,0.5-3.7,1.8
			c-0.1,0.2-0.2,0-0.2,0c-0.8-1.1-2-1.8-3.4-1.8c-0.3,0-0.6,0-0.9,0c1.5-0.4,2.5-1.5,2.4-3c-0.1-1.6-1.4-2.8-3-2.7
			c-1.2,0.1-2.3,0.9-2.6,2c-0.2,0.6-0.2,1.3,0.1,2c0.4,0.9,1.2,1.5,2.1,1.7c-0.3,0-0.6,0-0.9,0c-1.3,0-2.6,0.6-3.4,1.8
			c-0.1,0.2-0.2,0.2-0.3,0c-0.6-0.9-1.5-1.5-2.5-1.7c-0.5-0.1-1-0.1-1.5-0.1c1.6-0.5,2.5-1.6,2.4-3c-0.1-1.6-1.5-2.8-3.1-2.7
			c-1.1,0.1-2.1,0.8-2.5,1.8c-0.3,0.8-0.2,1.7,0.2,2.4c0.4,0.7,1.1,1.2,1.9,1.4c-0.2,0-0.4,0-0.6,0c-1.9,0-3.5,1.3-3.9,3.1
			c0,0.1,0,0.2-0.1,0.3v0.8C0.1,22.8,0.4,23,0.7,23c3.8,0,7.6,0,11.4,0c0.4,0,0.7-0.2,0.7-0.6c0-0.3-0.3-0.6-0.7-0.6h-1.6
			c0.2-1.3,1.3-2.2,2.6-2.3c1.1,0,2.2,0,3.3,0c1.3,0.1,2.4,1,2.6,2.3h-1.6c-0.4,0-0.7,0.2-0.7,0.6c0,0.4,0.3,0.6,0.7,0.6
			c3.8,0,7.6,0,11.3,0c0.5,0,0.7-0.2,0.7-0.7C29.4,20.6,28.2,19.1,26.6,18.6z M3.4,15.5c0-1,0.8-1.7,1.7-1.7c1,0,1.7,0.8,1.7,1.7
			c0,1-0.8,1.7-1.7,1.7C4.2,17.2,3.4,16.5,3.4,15.5z M1.2,21.8c0.3-1.3,1.4-2.3,2.7-2.3c0.9,0,1.9-0.1,2.8,0
			c1.2,0.2,2.1,1.1,2.3,2.2L1.2,21.8z M14.7,17.2c-1,0-1.7-0.8-1.7-1.8s0.8-1.7,1.8-1.7c0.9,0,1.7,0.8,1.7,1.7
			C16.4,16.5,15.7,17.2,14.7,17.2C14.7,17.2,14.7,17.2,14.7,17.2z M22.5,15.5c0-1,0.8-1.7,1.7-1.7c1,0,1.7,0.8,1.7,1.7
			c0,0.9-0.8,1.7-1.7,1.7C23.3,17.2,22.5,16.5,22.5,15.5C22.5,15.5,22.5,15.5,22.5,15.5L22.5,15.5z M20.3,21.8
			c0.1-0.9,0.9-1.9,2-2.2c0.1,0,0.3-0.1,0.4-0.1c1.1-0.1,2.2-0.1,3.3,0c1.2,0.2,1.9,1,2.3,2.2H20.3z"/>
		<path fill="#DBDBDB" d="M20.2,4.8c0.2-0.1,0.2-0.3,0.3-0.5c0-0.3-0.2-0.6-0.5-0.6c0,0,0,0,0,0c-1-0.1-1.9-0.3-2.9-0.4
			c-0.2,0-0.4-0.1-0.4-0.3c-0.4-0.9-0.9-1.7-1.3-2.6C15.2,0.2,15,0,14.7,0c-0.3,0-0.5,0.2-0.6,0.5c-0.4,0.9-0.9,1.8-1.3,2.6
			c0,0.1-0.1,0.2-0.3,0.2c-1,0.1-2,0.3-2.9,0.4C9.3,3.8,9.1,3.9,9,4.2C8.9,4.5,9,4.7,9.2,4.9c0.7,0.7,1.4,1.4,2.1,2
			c0.1,0.1,0.2,0.3,0.1,0.4c-0.2,1-0.3,1.9-0.5,2.9c-0.1,0.3,0,0.5,0.2,0.7c0.2,0.1,0.5,0.1,0.7,0c0.8-0.4,1.7-0.9,2.5-1.3
			c0.2-0.1,0.5-0.1,0.7,0c0.8,0.5,1.7,0.9,2.5,1.3c0.2,0.1,0.5,0.1,0.7,0c0.2-0.2,0.3-0.4,0.2-0.7c-0.2-1-0.3-1.9-0.5-2.9
			c0-0.2,0-0.4,0.2-0.5C18.8,6.2,19.5,5.5,20.2,4.8z M17,6.3c-0.2,0.2-0.3,0.5-0.3,0.8c0.1,0.7,0.2,1.3,0.3,2c0,0.1,0,0.2,0,0.2
			c-0.7-0.4-1.3-0.7-2-1c-0.3-0.2-0.6-0.2-0.9,0c-0.6,0.4-1.3,0.7-2,1.1c0.1-0.6,0.2-1.1,0.3-1.6l0-0.2c0.2-0.9,0.3-0.8-0.5-1.5
			c-0.4-0.4-0.7-0.7-1.1-1.1c-0.1-0.1-0.1-0.1-0.2-0.2c0.7-0.1,1.4-0.2,2.1-0.3c0.3,0,0.7-0.2,0.8-0.6c0.3-0.7,0.6-1.3,1-2
			c0.3,0.7,0.6,1.2,0.9,1.9c0.1,0.4,0.5,0.7,1,0.7c0.6,0,1.3,0.2,1.9,0.3l0,0l0,0c0.1,0,0,0,0,0C18,5.3,17.5,5.8,17,6.3L17,6.3z"/>
		<path fill="#DBDBDB" d="M9.3,6.9c0.2-0.1,0.3-0.4,0.2-0.6C9.5,6,9.2,5.9,9,5.9C8.3,5.8,7.5,5.6,6.8,5.5c-0.2,0-0.3-0.1-0.3-0.3
			C6.2,4.6,5.8,4,5.5,3.4C5.4,3.1,5.1,2.9,4.8,3C4.6,3,4.5,3.2,4.4,3.4c-0.3,0.7-0.6,1.3-1,2c0,0.1-0.2,0.2-0.3,0.2
			C2.4,5.6,1.7,5.8,1,5.9C0.7,5.9,0.5,6,0.4,6.3c-0.1,0.2,0,0.5,0.2,0.7c0.5,0.5,1,1,1.5,1.5c0.1,0.1,0.1,0.3,0.1,0.4
			C2.1,9.6,2,10.4,1.9,11.1c0,0.5,0.4,0.8,0.9,0.6c0.6-0.3,1.3-0.7,1.9-1c0.2-0.1,0.4-0.1,0.5,0c0.6,0.3,1.2,0.7,1.8,1
			c0.3,0.2,0.6,0.2,0.8-0.1C8,11.3,8,11.1,8,10.9c-0.1-0.7-0.2-1.4-0.4-2.1c0-0.1,0-0.3,0.1-0.4C8.3,7.9,8.8,7.4,9.3,6.9z M6.7,7.8
			C6.4,8,6.3,8.4,6.4,8.7c0.1,0.5,0.2,0.9,0.2,1.4C6.2,9.9,5.7,9.6,5.3,9.4c-0.2-0.1-0.5-0.1-0.8,0c-0.4,0.2-0.9,0.5-1.3,0.7
			c0.1-0.5,0.2-1,0.3-1.5c0.1-0.3,0-0.5-0.2-0.7c-0.3-0.4-0.7-0.7-1-1.1c0.4-0.1,0.9-0.2,1.4-0.2c0.3,0,0.5-0.2,0.6-0.4
			c0.2-0.4,0.4-0.9,0.7-1.4C5.1,5.2,5.4,5.6,5.5,6c0.1,0.4,0.5,0.7,1,0.7c0.4,0,0.8,0.1,1.2,0.2C7.3,7.2,7.1,7.5,6.7,7.8z"/>
		<path fill="#DBDBDB" d="M28.9,6.9c0.2-0.2,0.3-0.4,0.2-0.6C29,6,28.8,5.9,28.5,5.9c-0.7-0.1-1.5-0.2-2.2-0.3
			c-0.1,0-0.2-0.1-0.3-0.2c-0.3-0.6-0.6-1.3-0.9-1.9C25,3.1,24.8,3,24.5,2.9c-0.3,0-0.5,0.2-0.6,0.4C23.6,4,23.3,4.7,23,5.3
			c0,0.1-0.2,0.2-0.3,0.2c-0.7,0.1-1.4,0.2-2.2,0.3c-0.3,0-0.6,0.2-0.6,0.6c0,0.2,0.1,0.4,0.3,0.5c0.5,0.5,1,1,1.5,1.5
			c0.1,0.1,0.2,0.3,0.1,0.5c-0.1,0.8-0.3,1.5-0.4,2.2c0,0.5,0.4,0.8,0.9,0.6c0.6-0.3,1.3-0.7,1.9-1c0.2-0.1,0.4-0.1,0.5,0
			c0.6,0.3,1.2,0.7,1.8,1c0.3,0.2,0.6,0.1,0.8-0.1c0.1-0.2,0.2-0.4,0.1-0.6c-0.1-0.7-0.2-1.4-0.4-2.1c0-0.1,0-0.3,0.1-0.4
			C27.8,7.9,28.3,7.4,28.9,6.9z M26.2,7.9C26,8.1,25.9,8.4,26,8.6c0.1,0.5,0.2,1,0.3,1.5c-0.5-0.2-0.9-0.5-1.3-0.7
			c-0.2-0.1-0.5-0.1-0.8,0c-0.4,0.2-0.9,0.5-1.3,0.7c0.1-0.5,0.2-1,0.3-1.5c0.1-0.3,0-0.5-0.2-0.7c-0.3-0.4-0.7-0.7-1-1.1
			c0.5-0.1,0.9-0.2,1.4-0.2c0.3,0,0.5-0.2,0.6-0.4c0.2-0.4,0.4-0.9,0.7-1.4c0.2,0.4,0.4,0.8,0.6,1.2c0.1,0.4,0.5,0.7,1,0.7
			c0.4,0,0.8,0.1,1.2,0.2C26.9,7.2,26.5,7.5,26.2,7.9z"/>
	</g>
</g>
</svg>
