<?xml version="1.0" encoding="utf-8"?>
<!-- Generator: Adobe Illustrator 24.3.0, SVG Export Plug-In . SVG Version: 6.00 Build 0)  -->
<svg version="1.1" id="Layer_1" xmlns="http://www.w3.org/2000/svg" xmlns:xlink="http://www.w3.org/1999/xlink" x="0px" y="0px"
	 viewBox="0 0 32.9 26.3" enable-background="new 0 0 32.9 26.3" xml:space="preserve">
<g id="Layer_2_2_">
	<g id="Layer_1-2_1_">
		<path fill="#DBDBDB" d="M16.5,23.1c0.7,0,1.5,0,2.2,0c0.3,0,0.5,0.2,0.6,0.5c0,0.2-0.1,0.5-0.3,0.6c-0.1,0.1-0.3,0.1-0.4,0.1h-4.2
			c-0.2,0-0.4,0-0.5-0.2c-0.2-0.2-0.2-0.4-0.1-0.6c0.1-0.2,0.3-0.4,0.6-0.3H16.5z"/>
		<path fill="#DBDBDB" d="M16.4,26.3c-0.4,0-0.8,0-1.3,0s-0.7-0.2-0.7-0.6c0-0.3,0.2-0.6,0.6-0.6c0.9,0,1.7,0,2.6,0
			c0.4,0,0.7,0.2,0.7,0.6c0,0.3-0.2,0.6-0.6,0.6C17.3,26.3,16.9,26.3,16.4,26.3z"/>
		<path fill="#DBDBDB" d="M22.1,5.4c-0.3,0-0.5-0.3-0.5-0.6c0-0.1,0-0.2,0.1-0.3c0.1-0.1,0.2-0.2,0.3-0.3c0.4-0.4,0.7-0.7,1.1-1.1
			c0.2-0.2,0.5-0.3,0.8-0.1c0.2,0.2,0.3,0.5,0.1,0.8c0,0-0.1,0.1-0.1,0.1c-0.4,0.4-0.9,0.9-1.3,1.3C22.4,5.3,22.2,5.3,22.1,5.4z"/>
		<path fill="#DBDBDB" d="M11.4,4.8c0,0.3-0.3,0.5-0.6,0.5c-0.1,0-0.1,0-0.2,0c-0.1,0-0.2-0.1-0.2-0.2C10,4.7,9.6,4.3,9.2,3.9
			C8.9,3.6,8.9,3.3,9.1,3s0.6-0.2,0.8,0.1c0.4,0.4,0.8,0.8,1.3,1.2C11.3,4.5,11.4,4.6,11.4,4.8z"/>
		<path fill="#DBDBDB" d="M17,1.5c0,0.3,0,0.6,0,0.9C17,2.7,16.8,3,16.5,3c0,0,0,0,0,0c-0.3,0-0.5-0.3-0.5-0.6c0,0,0,0,0,0
			c0-0.6,0-1.2,0-1.8c0-0.3,0.2-0.6,0.5-0.6c0,0,0,0,0,0C16.8,0,17,0.2,17,0.6C17,0.9,17,1.2,17,1.5z"/>
		<path fill="#DBDBDB" d="M7.6,11c-0.3,0-0.6,0-0.9,0c-0.3,0-0.6-0.2-0.6-0.5c0-0.3,0.2-0.6,0.5-0.6c0,0,0.1,0,0.1,0
			c0.6,0,1.2,0,1.8,0c0.3,0,0.6,0.2,0.6,0.5c0,0,0,0,0,0c0,0.3-0.3,0.6-0.6,0.6c0,0,0,0,0,0L7.6,11L7.6,11z"/>
		<path fill="#DBDBDB" d="M25.4,9.8c0.3,0,0.6,0,0.9,0c0.4,0,0.6,0.2,0.6,0.6c0,0.3-0.3,0.6-0.6,0.5c0,0,0,0,0,0c-0.6,0-1.2,0-1.8,0
			c-0.3,0-0.6-0.2-0.6-0.5s0.2-0.6,0.5-0.6c0,0,0.1,0,0.1,0C24.7,9.8,25,9.8,25.4,9.8z"/>
		<path fill="#DBDBDB" d="M21.8,7.8c-1.1-1.7-2.9-2.8-4.9-2.8c-1.9-0.1-3.5,0.5-4.9,1.9c-1.8,1.8-2.4,4.5-1.4,6.9
			c0.3,0.8,0.9,1.5,1.4,2.2c0.9,1.2,1.4,2.6,1.7,4c0.1,0.6,0.1,1.2,0.1,1.8c0,0.5,0.2,0.7,0.7,0.7h2c0.7,0,1.4,0,2.1,0
			c0.4,0,0.6-0.2,0.7-0.6c0-0.1,0-0.2,0-0.3c0-1.2,0.2-2.3,0.6-3.4c0.4-1.1,1-2,1.7-2.9C23.2,12.9,23.3,10.1,21.8,7.8z M20.7,14.4
			c-0.7,1-1.4,2-1.9,3.1c-0.4,1.1-0.7,2.2-0.7,3.4c0,0.2-0.1,0.3-0.3,0.3c-0.5,0-0.9,0-1.4,0c-0.5,0-0.9,0-1.4,0
			c-0.2,0-0.2,0-0.2-0.2c-0.1-2.2-0.8-4.4-2.2-6.1c-0.6-0.7-1.1-1.5-1.2-2.5c-0.4-2.1,0.2-3.8,1.8-5.1c2.2-1.9,5.5-1.6,7.3,0.6
			c0.3,0.4,0.6,0.8,0.8,1.3C22.1,11,21.9,12.7,20.7,14.4L20.7,14.4z"/>
	</g>
</g>
</svg>
