<svg id="user" xmlns="http://www.w3.org/2000/svg" width="20.04" height="24.019" viewBox="0 0 20.04 24.019">
  <path id="Path_154" data-name="Path 154" d="M92.817,11.571a5.6,5.6,0,0,0,4.091-1.695A5.6,5.6,0,0,0,98.6,5.785a5.6,5.6,0,0,0-1.695-4.09,5.784,5.784,0,0,0-8.181,0,5.6,5.6,0,0,0-1.695,4.09,5.6,5.6,0,0,0,1.695,4.091A5.6,5.6,0,0,0,92.817,11.571ZM89.722,2.69a4.376,4.376,0,0,1,6.19,0,4.183,4.183,0,0,1,1.283,3.095,4.182,4.182,0,0,1-1.283,3.1,4.376,4.376,0,0,1-6.19,0,4.182,4.182,0,0,1-1.283-3.1A4.182,4.182,0,0,1,89.722,2.69Zm0,0" transform="translate(-82.949 0)" fill="#c0c8d5"/>
  <path id="Path_155" data-name="Path 155" d="M19.991,254.184a14.288,14.288,0,0,0-.195-1.518,11.957,11.957,0,0,0-.373-1.526,7.537,7.537,0,0,0-.627-1.423,5.365,5.365,0,0,0-.946-1.233,4.171,4.171,0,0,0-1.359-.854,4.7,4.7,0,0,0-1.735-.314,1.761,1.761,0,0,0-.94.4c-.282.184-.612.4-.979.632a5.612,5.612,0,0,1-1.267.558,4.921,4.921,0,0,1-3.1,0,5.6,5.6,0,0,1-1.266-.558c-.364-.233-.694-.445-.98-.632a1.759,1.759,0,0,0-.94-.4,4.69,4.69,0,0,0-1.735.314,4.167,4.167,0,0,0-1.359.854,5.366,5.366,0,0,0-.946,1.233,7.553,7.553,0,0,0-.627,1.423,11.986,11.986,0,0,0-.373,1.526,14.19,14.19,0,0,0-.195,1.518C.016,254.643,0,255.12,0,255.6a3.989,3.989,0,0,0,1.185,3.017,4.264,4.264,0,0,0,3.052,1.113H15.8a4.264,4.264,0,0,0,3.052-1.113,3.987,3.987,0,0,0,1.185-3.018c0-.484-.016-.961-.049-1.419ZM17.884,257.6a2.871,2.871,0,0,1-2.082.726H4.237a2.871,2.871,0,0,1-2.082-.725,2.6,2.6,0,0,1-.747-2c0-.45.015-.894.045-1.321a12.8,12.8,0,0,1,.176-1.367,10.572,10.572,0,0,1,.328-1.345,6.149,6.149,0,0,1,.511-1.157,3.978,3.978,0,0,1,.7-.911,2.766,2.766,0,0,1,.9-.562,3.238,3.238,0,0,1,1.109-.214c.049.026.137.076.279.169.289.189.623.4.992.639a6.975,6.975,0,0,0,1.591.711,6.328,6.328,0,0,0,3.966,0,6.981,6.981,0,0,0,1.592-.711c.377-.241.7-.45.991-.639.142-.093.23-.143.279-.169a3.241,3.241,0,0,1,1.109.214,2.77,2.77,0,0,1,.9.562,3.966,3.966,0,0,1,.7.911,6.127,6.127,0,0,1,.511,1.157,10.547,10.547,0,0,1,.328,1.345,12.908,12.908,0,0,1,.176,1.367h0c.03.425.045.869.045,1.321a2.6,2.6,0,0,1-.748,2Zm0,0" transform="translate(0 -235.714)" fill="#c0c8d5"/>
</svg>
