<?xml version="1.0" encoding="utf-8"?>
<!-- Generator: Adobe Illustrator 24.3.0, SVG Export Plug-In . SVG Version: 6.00 Build 0)  -->
<svg version="1.1" id="Layer_1" xmlns="http://www.w3.org/2000/svg" xmlns:xlink="http://www.w3.org/1999/xlink" x="0px" y="0px"
	 viewBox="0 0 23 23" enable-background="new 0 0 23 23" xml:space="preserve">
<g id="video" transform="translate(135 426)">
	<path id="Path_105" fill-rule="evenodd" clip-rule="evenodd" fill="#2688D0" d="M-113.8-416.7h-15.3l14.7-4.3
		c0.2-0.1,0.4-0.3,0.3-0.6l-0.8-2.7c-0.3-1.1-1.3-1.8-2.4-1.8c-0.2,0-0.5,0-0.7,0.1l-13.8,4c-1.3,0.4-2.1,1.8-1.7,3.1l0.8,2.6v10.7
		c0,1.4,1.1,2.5,2.5,2.5h5.4c0.2,0,0.5-0.2,0.5-0.4s-0.2-0.5-0.4-0.5c0,0,0,0,0,0h-5.4c-0.9,0-1.6-0.7-1.6-1.6v-6.1h17.6v6.1
		c0,0.9-0.7,1.6-1.6,1.6h-5.4c-0.2,0-0.5,0.2-0.5,0.4c0,0.2,0.2,0.5,0.4,0.5c0,0,0,0,0,0h5.4c1.4,0,2.5-1.1,2.5-2.5v-10.8
		C-113.4-416.5-113.6-416.7-113.8-416.7C-113.8-416.7-113.8-416.7-113.8-416.7L-113.8-416.7z M-121.7-412.5l1.9-3.3h2.5l-1.9,3.3
		H-121.7z M-125.3-412.5l1.9-3.3h2.5l-1.9,3.3H-125.3z M-128.8-412.5l1.9-3.3h2.5l-1.9,3.3H-128.8z M-127.1-418.3l-3.2-3.1l2.4-0.7
		c0,0,0,0,0.1,0.1l3.2,3.1L-127.1-418.3C-127.1-418.3-127.1-418.3-127.1-418.3L-127.1-418.3z M-121.1-424l3.2,3.1l-2.4,0.7
		c0,0,0,0-0.1-0.1l-3.2-3.1L-121.1-424C-121.1-424-121.1-424-121.1-424z M-124.5-423l3.2,3.1l-2.4,0.7c0,0,0,0-0.1-0.1l-3.2-3.1
		L-124.5-423C-124.5-423-124.5-423-124.5-423z M-117.7-425c0.1,0,0.3-0.1,0.4-0.1c0.7,0,1.3,0.5,1.5,1.2l0.6,2.2l-1.8,0.5
		c0,0,0,0-0.1-0.1l-3.2-3.1L-117.7-425z M-132.5-420.3c0.2-0.4,0.5-0.6,1-0.8l0.3-0.1c0,0,0,0,0.1,0.1l3.2,3.1l-4,1.1l-0.6-2.2
		C-132.8-419.5-132.7-419.9-132.5-420.3L-132.5-420.3z M-131.8-415.8h4l-1.9,3.3h-2L-131.8-415.8z M-118.2-412.5l1.9-3.3h2v3.3
		H-118.2z"/>
	<path id="Path_106" fill-rule="evenodd" clip-rule="evenodd" fill="#73BAE5" d="M-119.9-407.8c0-0.2-0.1-0.3-0.2-0.4l-3.9-2.3
		c-0.2-0.1-0.5-0.1-0.6,0.2c0,0.1-0.1,0.1-0.1,0.2v4.6c0,0.2,0.2,0.5,0.4,0.5c0.1,0,0.2,0,0.2-0.1l3.9-2.3
		C-120-407.5-119.9-407.6-119.9-407.8z M-123.9-406.3v-3l2.6,1.5L-123.9-406.3z"/>
	<path id="Path_107" fill-rule="evenodd" clip-rule="evenodd" fill="#2688D0" d="M-123.1-403.9c-0.2,0-0.4,0.2-0.4,0.4
		c0,0.2,0.2,0.4,0.4,0.4s0.4-0.2,0.4-0.4l0,0C-122.6-403.7-122.8-403.9-123.1-403.9z"/>
</g>
</svg>
