<svg xmlns="http://www.w3.org/2000/svg" viewBox="0 0 26.86 20.99"><defs><style>.cls-1{fill:#dbdbdb;}</style></defs><g id="Layer_2" data-name="Layer 2"><g id="Layer_1-2" data-name="Layer 1"><g id="Layer_2-2" data-name="Layer 2"><g id="Layer_1-2-2" data-name="Layer 1-2"><path class="cls-1" d="M14,20.47a.53.53,0,1,1-1.05,0,.52.52,0,0,1,.53-.52h0A.53.53,0,0,1,14,20.47Z"/><path class="cls-1" d="M24.25,16.94a5.91,5.91,0,0,0-1.73-.15A2.7,2.7,0,0,0,24.76,14a2.62,2.62,0,0,0-5.08-.69,2.52,2.52,0,0,0,.2,2.19,2.8,2.8,0,0,0,1.77,1.29l-.27,0A3.65,3.65,0,0,0,18,18.44c-.13.18-.16,0-.21,0a3.67,3.67,0,0,0-3.1-1.61h-.87A2.69,2.69,0,0,0,16.05,14a2.62,2.62,0,0,0-5.13-.64,2.57,2.57,0,0,0,.1,1.79,2.74,2.74,0,0,0,1.92,1.58c-.28,0-.54,0-.81,0a3.61,3.61,0,0,0-3.08,1.6c-.12.15-.15.15-.26,0a3.61,3.61,0,0,0-2.27-1.52,8.35,8.35,0,0,0-1.41-.09A2.7,2.7,0,0,0,7.34,14a2.62,2.62,0,0,0-5.06-.76,2.55,2.55,0,0,0,.17,2.22,2.77,2.77,0,0,0,1.78,1.31c-.21,0-.4,0-.59,0A3.67,3.67,0,0,0,.1,19.63c0,.09,0,.2-.1.26v.73A.65.65,0,0,0,.6,21H11a.55.55,0,0,0,.61-.51.56.56,0,0,0-.62-.54H9.52a2.59,2.59,0,0,1,2.41-2.09c1,0,2,0,3,0a2.58,2.58,0,0,1,2.41,2.09H15.89c-.38,0-.62.21-.62.53s.24.52.62.52H26.23c.44,0,.63-.21.63-.64A3.71,3.71,0,0,0,24.25,16.94ZM3.15,14.15a1.58,1.58,0,1,1,1.57,1.58A1.57,1.57,0,0,1,3.15,14.15Zm-2,5.77a2.59,2.59,0,0,1,2.5-2.07,17.18,17.18,0,0,1,2.59,0,2.54,2.54,0,0,1,2.12,2Zm12.29-4.19A1.57,1.57,0,1,1,15,14.17a1.57,1.57,0,0,1-1.6,1.56Zm7.16-1.59a1.58,1.58,0,1,1,1.58,1.59,1.57,1.57,0,0,1-1.58-1.59h0Zm-2,5.79a2.54,2.54,0,0,1,1.78-2,1.53,1.53,0,0,1,.36-.07,13.17,13.17,0,0,1,3,0,2.54,2.54,0,0,1,2.07,2Z"/><path class="cls-1" d="M18.45,4.41A.56.56,0,0,0,18.68,4a.51.51,0,0,0-.5-.53h0c-.89-.13-1.78-.27-2.67-.38a.45.45,0,0,1-.39-.28C14.74,2,14.34,1.19,14,.4a.54.54,0,0,0-1.05,0c-.4.81-.8,1.61-1.19,2.42a.34.34,0,0,1-.26.22l-2.67.37c-.26,0-.49.11-.58.38a.58.58,0,0,0,.23.64c.64.63,1.27,1.25,1.92,1.87a.35.35,0,0,1,.11.36c-.16.89-.3,1.78-.46,2.66a.56.56,0,0,0,.21.62.59.59,0,0,0,.66,0c.75-.4,1.52-.79,2.26-1.2a.54.54,0,0,1,.6,0L16,9.94a.56.56,0,0,0,.63,0,.55.55,0,0,0,.21-.6c-.16-.88-.29-1.76-.45-2.63a.42.42,0,0,1,.15-.45ZM15.56,5.77a.76.76,0,0,0-.25.75c.13.6.21,1.22.32,1.83a.67.67,0,0,1,0,.2c-.62-.32-1.21-.62-1.8-.94a.73.73,0,0,0-.8,0l-1.82,1c.08-.53.17-1,.25-1.5l0-.18c.14-.86.23-.71-.48-1.4l-1-1s-.13-.09-.14-.2c.65-.09,1.29-.2,1.94-.27a.82.82,0,0,0,.72-.51c.27-.6.57-1.18.89-1.82.3.59.59,1.14.83,1.7a.93.93,0,0,0,.88.64c.59.05,1.17.17,1.76.25h0c.05,0,0,0,0,0-.44.48-.88,1-1.35,1.46Z"/><path class="cls-1" d="M8.51,6.29a.53.53,0,0,0-.3-.94c-.66-.1-1.33-.21-2-.29a.35.35,0,0,1-.31-.25L5.05,3.07a.55.55,0,0,0-.68-.35A.53.53,0,0,0,4,3.07c-.29.6-.59,1.19-.88,1.79a.3.3,0,0,1-.26.21c-.66.08-1.31.2-2,.28a.57.57,0,0,0-.54.38.56.56,0,0,0,.21.61C1,6.79,1.5,7.26,2,7.71a.36.36,0,0,1,.09.36c-.13.69-.24,1.38-.35,2a.53.53,0,0,0,.79.54c.59-.3,1.18-.61,1.76-.93a.44.44,0,0,1,.47,0c.56.31,1.13.6,1.69.9A.55.55,0,0,0,7.28,10c-.11-.64-.22-1.29-.34-1.93a.35.35,0,0,1,.12-.37C7.55,7.23,8,6.76,8.51,6.29Zm-2.37.84A.8.8,0,0,0,5.86,8a12.73,12.73,0,0,1,.21,1.26C5.66,9,5.24,8.8,4.85,8.58a.66.66,0,0,0-.69,0c-.39.22-.8.41-1.23.64.08-.47.15-.92.24-1.36A.64.64,0,0,0,3,7.22l-.92-1c.4-.06.84-.14,1.28-.19a.65.65,0,0,0,.56-.4c.19-.4.39-.8.62-1.25.19.38.38.7.52,1a.9.9,0,0,0,.88.64c.37,0,.73.1,1.08.15C6.71,6.53,6.44,6.85,6.14,7.13Z"/><path class="cls-1" d="M26.34,6.3a.55.55,0,0,0,.19-.59.56.56,0,0,0-.5-.37l-2-.29a.3.3,0,0,1-.26-.21l-.87-1.76a.55.55,0,0,0-1.05,0L21,4.85a.31.31,0,0,1-.28.21c-.66.08-1.31.2-2,.28a.54.54,0,0,0-.55.53.51.51,0,0,0,.24.46c.46.45.92.91,1.39,1.35a.42.42,0,0,1,.13.42c-.13.68-.24,1.37-.35,2a.53.53,0,0,0,.8.53c.58-.3,1.16-.6,1.73-.91a.45.45,0,0,1,.5,0c.55.31,1.12.59,1.68.89a.55.55,0,0,0,.77-.1.54.54,0,0,0,.07-.52c-.11-.64-.22-1.29-.34-1.93a.36.36,0,0,1,.11-.35Zm-2.43.9a.67.67,0,0,0-.21.69c.09.43.15.87.23,1.33-.41-.21-.83-.41-1.22-.63a.66.66,0,0,0-.69,0c-.4.22-.8.41-1.23.64.08-.47.15-.92.23-1.36a.64.64,0,0,0-.19-.64c-.32-.32-.62-.66-.94-1l1.3-.2a.65.65,0,0,0,.56-.4c.18-.4.39-.8.62-1.24.18.37.38.7.51,1a.92.92,0,0,0,.89.63c.36,0,.72.1,1.07.15C24.52,6.56,24.22,6.89,23.91,7.2Z"/></g></g></g></g></svg>